<mxfile host="app.diagrams.net" modified="2024-07-16T16:16:22.533Z" agent="Mozilla/5.0 (Windows NT 10.0; Win64; x64) AppleWebKit/537.36 (KHTML, like Gecko) Chrome/126.0.0.0 Safari/537.36" etag="iUvemsZGLf1Q9VIUiSOQ" version="24.6.5" type="device">
  <diagram name="Page-1" id="5byGUTUVIz_IRTox0aHY">
    <mxGraphModel dx="2074" dy="1146" grid="1" gridSize="10" guides="1" tooltips="1" connect="1" arrows="1" fold="1" page="1" pageScale="1" pageWidth="827" pageHeight="1169" math="0" shadow="0">
      <root>
        <mxCell id="0" />
        <mxCell id="1" parent="0" />
        <mxCell id="LaJSsNVLjWSMgbOLAEa9-9" value="" style="edgeStyle=orthogonalEdgeStyle;rounded=0;orthogonalLoop=1;jettySize=auto;html=1;strokeColor=#3399FF;" parent="1" source="LaJSsNVLjWSMgbOLAEa9-6" target="LaJSsNVLjWSMgbOLAEa9-8" edge="1">
          <mxGeometry relative="1" as="geometry" />
        </mxCell>
        <mxCell id="LaJSsNVLjWSMgbOLAEa9-6" value="Lire:&lt;div&gt;releve_co2&lt;br&gt;&lt;/div&gt;" style="shape=parallelogram;perimeter=parallelogramPerimeter;whiteSpace=wrap;html=1;fixedSize=1;" parent="1" vertex="1">
          <mxGeometry x="319.5" y="380" width="160" height="60" as="geometry" />
        </mxCell>
        <mxCell id="LaJSsNVLjWSMgbOLAEa9-8" value="relevé_co2 &amp;lt; 0" style="rhombus;whiteSpace=wrap;html=1;" parent="1" vertex="1">
          <mxGeometry x="319.5" y="490" width="160" height="80" as="geometry" />
        </mxCell>
        <mxCell id="LaJSsNVLjWSMgbOLAEa9-10" value="Afficher:&lt;div&gt;&quot;Le niveau de CO2 ne peut être négatif.&quot;&lt;/div&gt;" style="shape=parallelogram;perimeter=parallelogramPerimeter;whiteSpace=wrap;html=1;fixedSize=1;" parent="1" vertex="1">
          <mxGeometry x="269.5" y="610" width="280" height="60" as="geometry" />
        </mxCell>
        <mxCell id="liuQIJpID7RmJH7KKy_5-5" value="" style="edgeStyle=orthogonalEdgeStyle;rounded=0;orthogonalLoop=1;jettySize=auto;html=1;strokeColor=#3399FF;" parent="1" edge="1">
          <mxGeometry relative="1" as="geometry">
            <mxPoint x="399" y="330" as="sourcePoint" />
            <mxPoint x="399.5" y="380" as="targetPoint" />
          </mxGeometry>
        </mxCell>
        <mxCell id="liuQIJpID7RmJH7KKy_5-6" value="" style="edgeStyle=orthogonalEdgeStyle;rounded=0;orthogonalLoop=1;jettySize=auto;html=1;strokeColor=#3399FF;" parent="1" edge="1">
          <mxGeometry relative="1" as="geometry">
            <mxPoint x="399" y="570" as="sourcePoint" />
            <mxPoint x="399.5" y="610" as="targetPoint" />
          </mxGeometry>
        </mxCell>
        <mxCell id="liuQIJpID7RmJH7KKy_5-9" value="" style="edgeStyle=orthogonalEdgeStyle;rounded=0;orthogonalLoop=1;jettySize=auto;html=1;strokeColor=#3399FF;" parent="1" edge="1">
          <mxGeometry relative="1" as="geometry">
            <mxPoint x="399" y="670" as="sourcePoint" />
            <mxPoint x="399.5" y="720" as="targetPoint" />
          </mxGeometry>
        </mxCell>
        <mxCell id="liuQIJpID7RmJH7KKy_5-12" value="Lire:&lt;div&gt;releve_co2&lt;br&gt;&lt;/div&gt;" style="shape=parallelogram;perimeter=parallelogramPerimeter;whiteSpace=wrap;html=1;fixedSize=1;" parent="1" vertex="1">
          <mxGeometry x="319.5" y="830" width="160" height="60" as="geometry" />
        </mxCell>
        <mxCell id="liuQIJpID7RmJH7KKy_5-13" value="Afficher:&lt;div&gt;&quot;Entrez le niveau de CO2 relevé :&quot;&lt;/div&gt;" style="shape=parallelogram;perimeter=parallelogramPerimeter;whiteSpace=wrap;html=1;fixedSize=1;" parent="1" vertex="1">
          <mxGeometry x="279.5" y="720" width="240" height="60" as="geometry" />
        </mxCell>
        <mxCell id="liuQIJpID7RmJH7KKy_5-14" value="" style="edgeStyle=orthogonalEdgeStyle;rounded=0;orthogonalLoop=1;jettySize=auto;html=1;strokeColor=#3399FF;" parent="1" edge="1">
          <mxGeometry relative="1" as="geometry">
            <mxPoint x="399" y="780" as="sourcePoint" />
            <mxPoint x="399.5" y="830" as="targetPoint" />
          </mxGeometry>
        </mxCell>
        <mxCell id="liuQIJpID7RmJH7KKy_5-26" value="" style="endArrow=none;html=1;rounded=0;fillColor=#dae8fc;strokeColor=#3399FF;" parent="1" edge="1">
          <mxGeometry width="50" height="50" relative="1" as="geometry">
            <mxPoint x="399.5" y="460" as="sourcePoint" />
            <mxPoint x="599.5" y="460" as="targetPoint" />
          </mxGeometry>
        </mxCell>
        <mxCell id="liuQIJpID7RmJH7KKy_5-27" value="" style="endArrow=none;html=1;rounded=0;fillColor=#dae8fc;strokeColor=#3399FF;" parent="1" edge="1">
          <mxGeometry width="50" height="50" relative="1" as="geometry">
            <mxPoint x="599.5" y="910" as="sourcePoint" />
            <mxPoint x="599.5" y="460" as="targetPoint" />
          </mxGeometry>
        </mxCell>
        <mxCell id="liuQIJpID7RmJH7KKy_5-28" value="" style="endArrow=none;html=1;rounded=0;fillColor=#dae8fc;strokeColor=#3399FF;" parent="1" edge="1">
          <mxGeometry width="50" height="50" relative="1" as="geometry">
            <mxPoint x="599.5" y="910" as="sourcePoint" />
            <mxPoint x="399.5" y="910" as="targetPoint" />
          </mxGeometry>
        </mxCell>
        <mxCell id="liuQIJpID7RmJH7KKy_5-29" value="" style="endArrow=none;html=1;rounded=0;fillColor=#dae8fc;strokeColor=#3399FF;" parent="1" edge="1">
          <mxGeometry width="50" height="50" relative="1" as="geometry">
            <mxPoint x="399.5" y="910" as="sourcePoint" />
            <mxPoint x="399.5" y="890" as="targetPoint" />
          </mxGeometry>
        </mxCell>
        <mxCell id="liuQIJpID7RmJH7KKy_5-30" value="Vrai" style="text;html=1;align=center;verticalAlign=middle;whiteSpace=wrap;rounded=0;" parent="1" vertex="1">
          <mxGeometry x="349.5" y="570" width="60" height="30" as="geometry" />
        </mxCell>
        <mxCell id="liuQIJpID7RmJH7KKy_5-31" value="" style="endArrow=none;html=1;rounded=0;entryX=0;entryY=0.5;entryDx=0;entryDy=0;strokeColor=#3399FF;" parent="1" target="LaJSsNVLjWSMgbOLAEa9-8" edge="1">
          <mxGeometry width="50" height="50" relative="1" as="geometry">
            <mxPoint x="199.5" y="530" as="sourcePoint" />
            <mxPoint x="459.5" y="530" as="targetPoint" />
          </mxGeometry>
        </mxCell>
        <mxCell id="liuQIJpID7RmJH7KKy_5-32" value="" style="endArrow=none;html=1;rounded=0;strokeColor=#3399FF;" parent="1" edge="1">
          <mxGeometry width="50" height="50" relative="1" as="geometry">
            <mxPoint x="199.5" y="940" as="sourcePoint" />
            <mxPoint x="199.5" y="530" as="targetPoint" />
          </mxGeometry>
        </mxCell>
        <mxCell id="liuQIJpID7RmJH7KKy_5-33" value="" style="endArrow=none;html=1;rounded=0;strokeColor=#3399FF;" parent="1" edge="1">
          <mxGeometry width="50" height="50" relative="1" as="geometry">
            <mxPoint x="399.5" y="940" as="sourcePoint" />
            <mxPoint x="199.5" y="940" as="targetPoint" />
          </mxGeometry>
        </mxCell>
        <mxCell id="liuQIJpID7RmJH7KKy_5-35" value="" style="endArrow=classic;html=1;rounded=0;strokeColor=#3399FF;" parent="1" edge="1">
          <mxGeometry width="50" height="50" relative="1" as="geometry">
            <mxPoint x="399.5" y="940" as="sourcePoint" />
            <mxPoint x="399.5" y="960" as="targetPoint" />
          </mxGeometry>
        </mxCell>
        <mxCell id="liuQIJpID7RmJH7KKy_5-36" value="Afficher:&lt;div&gt;&quot;Le niveau de CO2 relevé est de : &quot;, releve_co2&lt;/div&gt;" style="shape=parallelogram;perimeter=parallelogramPerimeter;whiteSpace=wrap;html=1;fixedSize=1;" parent="1" vertex="1">
          <mxGeometry x="279.5" y="960" width="240" height="60" as="geometry" />
        </mxCell>
        <mxCell id="liuQIJpID7RmJH7KKy_5-37" value="Faux" style="text;html=1;align=center;verticalAlign=middle;whiteSpace=wrap;rounded=0;" parent="1" vertex="1">
          <mxGeometry x="240" y="500" width="60" height="30" as="geometry" />
        </mxCell>
        <mxCell id="liuQIJpID7RmJH7KKy_5-38" value="Fin" style="rounded=1;whiteSpace=wrap;html=1;" parent="1" vertex="1">
          <mxGeometry x="320" y="1050" width="160" height="60" as="geometry" />
        </mxCell>
        <mxCell id="liuQIJpID7RmJH7KKy_5-39" value="" style="edgeStyle=orthogonalEdgeStyle;rounded=0;orthogonalLoop=1;jettySize=auto;html=1;strokeColor=#3399FF;" parent="1" edge="1">
          <mxGeometry relative="1" as="geometry">
            <mxPoint x="399.5" y="1021.5" as="sourcePoint" />
            <mxPoint x="400" y="1050" as="targetPoint" />
          </mxGeometry>
        </mxCell>
        <mxCell id="T4qLKTYN-cY89EV3KZdK-2" value="" style="endArrow=none;dashed=1;html=1;rounded=0;strokeColor=#3399FF;" parent="1" edge="1">
          <mxGeometry width="50" height="50" relative="1" as="geometry">
            <mxPoint x="399" y="260" as="sourcePoint" />
            <mxPoint x="399" y="330" as="targetPoint" />
          </mxGeometry>
        </mxCell>
      </root>
    </mxGraphModel>
  </diagram>
</mxfile>
